<svg width="28" height="26" viewBox="0 0 28 26" fill="none" xmlns="http://www.w3.org/2000/svg">
<g opacity="0.5">
<path opacity="0.4" fill-rule="evenodd" clip-rule="evenodd" d="M5.91064 22.5884C5.91064 21.7484 6.59064 21.0684 7.43064 21.0684C8.26064 21.0684 8.94064 21.7484 8.94064 22.5884C8.94064 23.4184 8.26064 24.0984 7.43064 24.0984C6.59064 24.0984 5.91064 23.4184 5.91064 22.5884ZM17.1606 22.5884C17.1606 21.7484 17.8406 21.0684 18.6806 21.0684C19.5106 21.0684 20.1906 21.7484 20.1906 22.5884C20.1906 23.4184 19.5106 24.0984 18.6806 24.0984C17.8406 24.0984 17.1606 23.4184 17.1606 22.5884Z" fill="url(#paint0_linear_198_2982)"/>
<path fill-rule="evenodd" clip-rule="evenodd" d="M20.1907 8.34884C20.8007 8.34884 21.2007 8.55884 21.6007 9.01884C22.0007 9.47884 22.0707 10.1388 21.9807 10.7378L21.0307 17.2978C20.8507 18.5588 19.7707 19.4878 18.5007 19.4878H7.59074C6.26074 19.4878 5.16074 18.4678 5.05074 17.1488L4.13074 6.24784L2.62074 5.98784C2.22074 5.91784 1.94074 5.52784 2.01074 5.12784C2.08074 4.71784 2.47074 4.44784 2.88074 4.50784L5.26574 4.86784C5.60574 4.92884 5.85574 5.20784 5.88574 5.54784L6.07574 7.78784C6.10574 8.10884 6.36574 8.34884 6.68574 8.34884H20.1907ZM14.1307 13.5478H16.9007C17.3207 13.5478 17.6507 13.2078 17.6507 12.7978C17.6507 12.3778 17.3207 12.0478 16.9007 12.0478H14.1307C13.7107 12.0478 13.3807 12.3778 13.3807 12.7978C13.3807 13.2078 13.7107 13.5478 14.1307 13.5478Z" fill="url(#paint1_linear_198_2982)"/>
</g>
<circle cx="21.5" cy="6.5" r="6" fill="#FF4B4B" stroke="white"/>
<path d="M19.729 10H21.205L23.77 4.42V3.34H19.108V4.519H22.276L19.729 10Z" fill="white"/>
<defs>
<linearGradient id="paint0_linear_198_2982" x1="5.91064" y1="20.8823" x2="16.9209" y2="28.9219" gradientUnits="userSpaceOnUse">
<stop stop-color="#53E88B"/>
<stop offset="1" stop-color="#15BE77"/>
</linearGradient>
<linearGradient id="paint1_linear_198_2982" x1="2" y1="3.57918" x2="24.6895" y2="8.27368" gradientUnits="userSpaceOnUse">
<stop stop-color="#53E88B"/>
<stop offset="1" stop-color="#15BE77"/>
</linearGradient>
</defs>
</svg>
